<svg xmlns="http://www.w3.org/2000/svg" xmlns:xlink="http://www.w3.org/1999/xlink" version="1.0" id="katman_1" x="0px" y="0px" style="enable-background:new 0 0 800 600;" xml:space="preserve" viewBox="70.1 258 659.3 84">
<style type="text/css">
	.st0{fill:url(#SVGID_1_);}
	.st1{fill:url(#SVGID_2_);}
	.st2{fill:url(#SVGID_3_);}
	.st3{fill:url(#SVGID_4_);}
	.st4{fill:url(#SVGID_5_);}
	.st5{fill:url(#SVGID_6_);}
	.st6{fill:#0082FB;}
	.st7{fill:url(#SVGID_7_);}
	.st8{fill:url(#SVGID_8_);}
	.st9{fill:url(#SVGID_9_);}
	.st10{fill:url(#SVGID_10_);}
	.st11{fill:url(#SVGID_11_);}
	.st12{fill:url(#SVGID_12_);}
	.st13{fill:url(#SVGID_13_);}
</style>
<path d="M202.8,260.3h13.7l23.3,42l23.3-42h13.4v69.1h-11.2v-53l-20.4,36.7h-10.5L214,276.5v53h-11.2V260.3z" fill="#ffffff"/>
<path d="M312.5,330.6c-5.2,0-9.7-1.1-13.6-3.4c-3.9-2.2-7.1-5.5-9.2-9.5c-2.2-4-3.3-8.7-3.3-13.9c0-5.3,1.1-10,3.2-14.1  c2.1-4.1,5.1-7.3,8.9-9.6c3.8-2.3,8.2-3.5,13.1-3.5c4.9,0,9.1,1.2,12.7,3.5c3.5,2.3,6.3,5.6,8.2,9.7c1.9,4.2,2.9,9.1,2.9,14.7v3.1  h-37.9c0.7,4.2,2.4,7.5,5.1,9.9c2.7,2.4,6.2,3.6,10.3,3.6c3.3,0,6.2-0.5,8.6-1.5c2.4-1,4.7-2.5,6.8-4.5l5.9,7.3  C328.3,328,321.1,330.6,312.5,330.6z M320.7,289.7c-2.3-2.4-5.4-3.6-9.2-3.6c-3.7,0-6.8,1.2-9.3,3.7c-2.5,2.4-4.1,5.7-4.7,9.8h27.2  C324.3,295.3,323,292,320.7,289.7z" fill="#ffffff"/>
<path d="M348.9,287.1h-10.3v-9.1h10.3v-15.1h10.8v15.1h15.6v9.1h-15.6v23.1c0,3.8,0.7,6.6,2,8.2c1.3,1.6,3.6,2.5,6.8,2.5  c1.2,0,2.4,0,3.6-0.2c1-0.1,2.1-0.3,3.3-0.5v9c-1.4,0.4-2.7,0.7-4.1,0.9c-1.6,0.2-3.2,0.3-4.8,0.3c-11.6,0-17.4-6.3-17.4-19V287.1z" fill="#ffffff"/>
<path d="M431.5,329.4h-10.6v-7.2c-1.8,2.7-4.3,4.8-7.2,6.2c-2.9,1.5-6.2,2.2-9.9,2.2c-4.5,0-8.6-1.2-12.1-3.5  c-3.5-2.3-6.3-5.5-8.3-9.6c-2-4.1-3-8.7-3-13.9c0-5.3,1-9.9,3.1-14c2-4,4.9-7.2,8.5-9.5c3.6-2.3,7.8-3.5,12.4-3.5  c3.5,0,6.7,0.7,9.5,2c2.8,1.3,5.2,3.3,7,5.8v-6.6h10.6V329.4z M420.7,296c-1.2-2.9-3-5.2-5.5-6.9c-2.5-1.7-5.4-2.5-8.6-2.5  c-4.6,0-8.3,1.5-11,4.6c-2.7,3.1-4.1,7.3-4.1,12.5c0,5.3,1.3,9.5,4,12.6c2.6,3.1,6.2,4.6,10.7,4.6c3.3,0,6.3-0.9,8.9-2.6  c2.6-1.7,4.5-4.1,5.6-6.9V296z" fill="#ffffff"/>
<path d="M520.5,276.4c3,5.4,4.5,11.5,4.5,18.5c0,6.5-1.4,12.3-4.2,17.5c-2.8,5.2-6.5,9.3-11.2,12.4c4.6,5.8,8.4,11.5,11.5,17.2  h-12.8c-2.4-4.5-5-8.7-8-12.8c-3.3,1-6.8,1.5-10.3,1.5c-5.1,0-9.7-0.9-14-2.6c-4.2-1.7-7.9-4.2-11.1-7.5c-3.2-3.3-5.6-7.1-7.3-11.4  c-1.7-4.4-2.6-9.1-2.6-14.3c0-5.2,0.9-10,2.6-14.3c1.6-4.2,4.1-8.1,7.3-11.4c3.1-3.2,6.9-5.8,11.1-7.5c4.3-1.8,8.9-2.6,14-2.6  c6.8,0,12.8,1.5,18.1,4.6C513.4,266.7,517.6,271.1,520.5,276.4L520.5,276.4z M470,308c2,3.8,4.7,6.8,8.2,8.9  c3.5,2.1,7.5,3.2,11.9,3.2c4.5,0,8.5-1.1,12-3.2c3.5-2.1,6.2-5.1,8.2-8.9c2-3.8,3-8.2,3-13.2c0-5-1-9.4-3-13.2  c-2-3.8-4.7-6.8-8.2-8.9c-3.5-2.1-7.4-3.2-12-3.2c-4.5,0-8.5,1.1-11.9,3.2c-3.5,2.1-6.2,5.1-8.2,8.9c-2,3.8-3,8.2-3,13.2  C467,299.8,468,304.2,470,308L470,308z" fill="#ffffff"/>
<path d="M580.2,329.4h-10.6V322c-4,5.8-9.4,8.6-16.4,8.6c-6.1,0-10.7-1.9-14-5.7c-3.2-3.8-4.9-9.3-4.9-16.4v-30.6h10.8v29.3  c0,4.8,0.8,8.3,2.5,10.6c1.7,2.3,4.3,3.4,7.9,3.4c3.1,0,5.9-0.8,8.3-2.4c2.4-1.6,4.3-3.9,5.6-6.8v-34.1h10.8V329.4z" fill="#ffffff"/>
<path d="M615.6,330.6c-5.2,0-9.7-1.1-13.6-3.4c-3.9-2.2-7.1-5.5-9.2-9.5c-2.2-4-3.3-8.7-3.3-13.9c0-5.3,1.1-10,3.2-14.1  c2.1-4.1,5.1-7.3,8.9-9.6c3.8-2.3,8.2-3.5,13.1-3.5c4.9,0,9.1,1.2,12.7,3.5c3.5,2.3,6.3,5.6,8.2,9.7c1.9,4.2,2.9,9.1,2.9,14.7v3.1  h-37.9c0.7,4.2,2.4,7.5,5.1,9.9c2.7,2.4,6.2,3.6,10.3,3.6c3.3,0,6.2-0.5,8.6-1.5c2.4-1,4.7-2.5,6.8-4.5l5.9,7.3  C631.4,328,624.2,330.6,615.6,330.6z M623.8,289.7c-2.3-2.4-5.4-3.6-9.2-3.6c-3.7,0-6.8,1.2-9.3,3.7c-2.5,2.4-4.1,5.7-4.7,9.8h27.2  C627.5,295.3,626.1,292,623.8,289.7z" fill="#ffffff"/>
<path d="M682.7,326.3c-3.8,2.9-8.9,4.4-15.4,4.4c-5.4,0-10.2-1-14.2-2.9c-4-1.9-7-4.5-9-7.7l7.3-6.3c1.5,2.3,3.6,4.1,6.3,5.5  c2.7,1.3,5.8,2,9.5,2c6.9,0,10.3-2,10.3-6c0-1.7-0.6-3.1-1.7-4.1c-1.1-1-3-1.8-5.6-2.2l-9.9-1.7c-4.7-0.8-8.3-2.5-10.7-5  c-2.5-2.5-3.7-5.7-3.7-9.7c0-4.8,1.9-8.6,5.7-11.5c3.8-2.9,9-4.3,15.4-4.3c4.7,0,8.9,1,12.7,2.9c3.7,1.9,6.5,4.4,8.3,7.5l-7.5,5.6  c-1.3-2-3.1-3.7-5.6-4.8c-2.5-1.2-5.3-1.8-8.6-1.8c-3.1,0-5.4,0.5-7.1,1.6c-1.7,1.1-2.5,2.5-2.5,4.4c0,1.6,0.5,2.9,1.5,3.8  c1,0.9,2.7,1.5,5.1,2l11.2,2c4.5,0.8,7.9,2.5,10.3,5.1c2.4,2.6,3.6,5.8,3.6,9.7C688.5,319.5,686.5,323.4,682.7,326.3z" fill="#ffffff"/>
<path d="M702.9,287.1h-10.3v-9.1h10.3v-15.1h10.8v15.1h15.6v9.1h-15.6v23.1c0,3.8,0.7,6.6,2,8.2c1.3,1.6,3.6,2.5,6.8,2.5  c1.2,0,2.4,0,3.6-0.2c1-0.1,2.1-0.3,3.3-0.5v9c-1.4,0.4-2.7,0.7-4.1,0.9c-1.6,0.2-3.2,0.3-4.8,0.3c-11.6,0-17.4-6.3-17.4-19V287.1z" fill="#ffffff"/>
<linearGradient id="SVGID_1_" gradientUnits="userSpaceOnUse" x1="152.8926" y1="309.1468" x2="128.3982" y2="341.2932" gradientTransform="matrix(1 0 0 -1 -20.96 604.34)" fill="#ffffff">
	<stop offset="6.000000e-04" style="stop-color:#0867DF" fill="#ffffff"/>
	<stop offset="0.4539" style="stop-color:#0668E1" fill="#ffffff"/>
	<stop offset="0.8591" style="stop-color:#0064E0" fill="#ffffff"/>
</linearGradient>
<path class="st0" d="M101.7,258c0,0-0.1,0-0.1,0l-0.1,11.9c0,0,0.1,0,0.1,0c7.8,0,13.9,6.2,27.1,28.4l0.8,1.4l0.1,0.1l7.4-11.1  l-0.1-0.1c-1.7-2.8-3.4-5.4-5-7.8c-1.9-2.7-3.6-5.2-5.4-7.4C117.7,262.2,110.4,258,101.7,258z" fill="#ffffff"/>
<linearGradient id="SVGID_2_" gradientUnits="userSpaceOnUse" x1="105.1594" y1="329.9577" x2="121.9658" y2="342.7368" gradientTransform="matrix(1 0 0 -1 -20.96 604.34)" fill="#ffffff">
	<stop offset="0.1323" style="stop-color:#0064DF" fill="#ffffff"/>
	<stop offset="0.9988" style="stop-color:#0064E0" fill="#ffffff"/>
</linearGradient>
<path class="st1" d="M101.6,258c-8.8,0-16.6,5.7-22.2,14.4c0,0,0,0.1,0,0.1l10.3,5.6c0,0,0-0.1,0.1-0.1c3.3-4.9,7.4-8.1,11.7-8.1  c0,0,0.1,0,0.1,0l0.2-11.9C101.6,258,101.6,258,101.6,258z" fill="#ffffff"/>
<linearGradient id="SVGID_3_" gradientUnits="userSpaceOnUse" x1="98.0206" y1="311.2556" x2="104.7518" y2="328.2266" gradientTransform="matrix(1 0 0 -1 -20.96 604.34)" fill="#ffffff">
	<stop offset="1.470000e-02" style="stop-color:#0072EC" fill="#ffffff"/>
	<stop offset="0.6881" style="stop-color:#0064DF" fill="#ffffff"/>
</linearGradient>
<path class="st2" d="M79.4,272.4C79.4,272.4,79.4,272.4,79.4,272.4c-3.7,5.8-6.5,12.8-8,20.4c0,0,0,0.1,0,0.1l11.6,2.7  c0,0,0-0.1,0-0.1c1.2-6.7,3.6-12.8,6.6-17.5c0,0,0-0.1,0.1-0.1L79.4,272.4z" fill="#ffffff"/>
<linearGradient id="SVGID_4_" gradientUnits="userSpaceOnUse" x1="97.1008" y1="299.0025" x2="97.8793" y2="309.3629" gradientTransform="matrix(1 0 0 -1 -20.96 604.34)" fill="#ffffff">
	<stop offset="7.310000e-02" style="stop-color:#007CF6" fill="#ffffff"/>
	<stop offset="0.9943" style="stop-color:#0072EC" fill="#ffffff"/>
</linearGradient>
<path class="st3" d="M83,295.5l-11.6-2.7c0,0,0,0.1,0,0.1c-0.8,4.2-1.2,8.4-1.2,12.7c0,0,0,0.1,0,0.1l11.9,1.1c0,0,0-0.1,0-0.1  c0-0.2,0-0.5,0-0.7C82,302.4,82.4,299,83,295.5C83,295.6,83,295.5,83,295.5z" fill="#ffffff"/>
<linearGradient id="SVGID_5_" gradientUnits="userSpaceOnUse" x1="97.5295" y1="293.3752" x2="96.9726" y2="297.5263" gradientTransform="matrix(1 0 0 -1 -20.96 604.34)" fill="#ffffff">
	<stop offset="7.310000e-02" style="stop-color:#007FF9" fill="#ffffff"/>
	<stop offset="1" style="stop-color:#007CF6" fill="#ffffff"/>
</linearGradient>
<path class="st4" d="M82.4,310.4c-0.2-1.2-0.3-2.5-0.4-3.7c0,0,0-0.1,0-0.1l-11.9-1.1c0,0,0,0.1,0,0.1v0c0,2.5,0.2,5,0.6,7.4  c0,0,0,0.1,0,0.1L82.4,310.4C82.4,310.5,82.4,310.4,82.4,310.4z" fill="#ffffff"/>
<linearGradient id="SVGID_6_" gradientUnits="userSpaceOnUse" x1="97.2044" y1="292.2867" x2="100.6769" y2="284.9101" gradientTransform="matrix(1 0 0 -1 -20.96 604.34)" fill="#ffffff">
	<stop offset="7.310000e-02" style="stop-color:#007FF9" fill="#ffffff"/>
	<stop offset="1" style="stop-color:#0082FB" fill="#ffffff"/>
</linearGradient>
<path class="st5" d="M85.1,316.5c-1.3-1.4-2.2-3.4-2.7-6c0,0,0-0.1,0-0.1l-11.6,2.7c0,0,0,0.1,0,0.1c0.9,4.6,2.6,8.4,5,11.3  c0,0,0,0.1,0.1,0.1L85.1,316.5C85.2,316.6,85.1,316.6,85.1,316.5z" fill="#ffffff"/>
<path class="st6" d="M119.4,283.7c-7,10.7-11.2,17.4-11.2,17.4c-9.3,14.5-12.5,17.8-17.7,17.8c-2.2,0-4-0.8-5.3-2.2c0,0,0,0-0.1-0.1  l-9.2,7.9c0,0,0,0.1,0.1,0.1c3.4,3.9,8.2,6.1,14.1,6.1c9,0,15.4-4.2,26.9-24.2c0,0,4.8-8.4,8.1-14.2  C123,288.9,121.1,286.1,119.4,283.7z" fill="#ffffff"/>
<linearGradient id="SVGID_7_" gradientUnits="userSpaceOnUse" x1="150.7139" y1="327.9532" x2="155.3069" y2="334.3156" gradientTransform="matrix(1 0 0 -1 -20.96 604.34)" fill="#ffffff">
	<stop offset="0.2799" style="stop-color:#007FF8" fill="#ffffff"/>
	<stop offset="0.9141" style="stop-color:#0082FB" fill="#ffffff"/>
</linearGradient>
<path class="st7" d="M131.8,266.8C131.8,266.8,131.8,266.9,131.8,266.8c-2,2.1-3.7,4.3-5.4,6.5c1.7,2.2,3.5,4.7,5.4,7.4  c2.2-3.4,4.2-6.1,6.2-8.2c0,0,0,0,0.1-0.1L131.8,266.8z" fill="#ffffff"/>
<path class="st6" d="M165.7,265.8c-4.9-4.9-10.7-7.8-16.9-7.8c-6.5,0-12,3.6-17,8.8c0,0,0,0.1-0.1,0.1l6.3,5.6c0,0,0,0,0.1-0.1  c3.3-3.4,6.4-5.1,9.9-5.1h0c3.8,0,7.3,1.8,10.4,4.9c0,0,0,0,0.1,0.1L165.7,265.8C165.7,265.8,165.7,265.8,165.7,265.8z" fill="#ffffff"/>
<linearGradient id="SVGID_8_" gradientUnits="userSpaceOnUse" x1="185.7108" y1="336.1964" x2="195.3109" y2="300.8253" gradientTransform="matrix(1 0 0 -1 -20.96 604.34)" fill="#ffffff">
	<stop offset="0" style="stop-color:#0082FB" fill="#ffffff"/>
	<stop offset="0.9995" style="stop-color:#0081FA" fill="#ffffff"/>
</linearGradient>
<path class="st8" d="M179.7,304c-0.3-15.8-5.8-29.8-14-38.1c0,0,0,0-0.1-0.1l-7.3,6.5c0,0,0,0,0.1,0.1c6.2,6.3,10.4,18.1,10.8,31.7  c0,0,0,0.1,0,0.1l10.5,0C179.7,304,179.7,304,179.7,304z" fill="#ffffff"/>
<linearGradient id="SVGID_9_" gradientUnits="userSpaceOnUse" x1="197.6448" y1="299.4821" x2="191.5671" y2="287.1801" gradientTransform="matrix(1 0 0 -1 -20.96 604.34)" fill="#ffffff">
	<stop offset="6.190000e-02" style="stop-color:#0081FA" fill="#ffffff"/>
	<stop offset="1" style="stop-color:#0080F9" fill="#ffffff"/>
</linearGradient>
<path class="st9" d="M179.7,304.1c0,0,0-0.1,0-0.1l-10.5,0c0,0,0,0.1,0,0.1c0,0.6,0,1.3,0,1.9c0,3.7-0.6,6.7-1.7,8.9  c0,0,0,0.1-0.1,0.1l7.8,8.1c0,0,0-0.1,0.1-0.1c2.8-4.4,4.3-10.4,4.3-17.8C179.7,304.8,179.7,304.5,179.7,304.1z" fill="#ffffff"/>
<linearGradient id="SVGID_10_" gradientUnits="userSpaceOnUse" x1="186.7203" y1="280.6619" x2="192.4107" y2="284.5436" gradientTransform="matrix(1 0 0 -1 -20.96 604.34)" fill="#ffffff">
	<stop offset="0" style="stop-color:#027AF3" fill="#ffffff"/>
	<stop offset="1" style="stop-color:#0080F9" fill="#ffffff"/>
</linearGradient>
<path class="st10" d="M167.6,314.9C167.6,314.9,167.6,314.9,167.6,314.9c-1,1.9-2.4,3.1-4.2,3.7l3.6,11.2c0.5-0.2,0.9-0.3,1.4-0.5  c0.1-0.1,0.3-0.1,0.4-0.2c0.1,0,0.2-0.1,0.2-0.1c2.4-1.2,4.4-3,5.9-5.1c0.1-0.1,0.2-0.3,0.3-0.4c0.1-0.1,0.1-0.2,0.2-0.3  c0,0,0-0.1,0.1-0.1L167.6,314.9z" fill="#ffffff"/>
<linearGradient id="SVGID_11_" gradientUnits="userSpaceOnUse" x1="177.7846" y1="279.9076" x2="185.7" y2="279.9076" gradientTransform="matrix(1 0 0 -1 -20.96 604.34)" fill="#ffffff">
	<stop offset="0" style="stop-color:#0377EF" fill="#ffffff"/>
	<stop offset="0.9994" style="stop-color:#0279F1" fill="#ffffff"/>
</linearGradient>
<path class="st11" d="M161.1,318.8c-1.1,0-2.2-0.2-3.3-0.6l-3.6,11.5c2,0.7,4.2,1,6.7,1c2.1,0,4.2-0.3,6.2-1l-3.6-11.2  C162.7,318.7,161.9,318.8,161.1,318.8z" fill="#ffffff"/>
<linearGradient id="SVGID_12_" gradientUnits="userSpaceOnUse" x1="170.9052" y1="284.2637" x2="176.591" y2="280.9134" gradientTransform="matrix(1 0 0 -1 -20.96 604.34)" fill="#ffffff">
	<stop offset="1.900000e-03" style="stop-color:#0471E9" fill="#ffffff"/>
	<stop offset="1" style="stop-color:#0377EF" fill="#ffffff"/>
</linearGradient>
<path class="st12" d="M153.8,314.9C153.8,314.9,153.8,314.9,153.8,314.9l-8.4,8.6c0,0,0,0.1,0.1,0.1c2.9,3.1,5.7,5,8.8,6.1l3.6-11.4  C156.6,317.7,155.3,316.6,153.8,314.9z" fill="#ffffff"/>
<linearGradient id="SVGID_13_" gradientUnits="userSpaceOnUse" x1="153.5589" y1="308.9189" x2="171.7528" y2="286.0081" gradientTransform="matrix(1 0 0 -1 -20.96 604.34)" fill="#ffffff">
	<stop offset="0.2765" style="stop-color:#0867DF" fill="#ffffff"/>
	<stop offset="1" style="stop-color:#0471E9" fill="#ffffff"/>
</linearGradient>
<path class="st13" d="M153.8,314.8c-2.5-2.9-5.6-7.8-10.5-15.6l-6.4-10.6l-0.1-0.1l-7.4,11.1l0.1,0.1l4.5,7.6  c4.4,7.3,7.9,12.6,11.4,16.3c0,0,0,0,0.1,0.1L153.8,314.8C153.8,314.9,153.8,314.9,153.8,314.8z" fill="#ffffff"/>
</svg>